<svg width="198" height="69" viewBox="0 0 198 69" fill="none" xmlns="http://www.w3.org/2000/svg">
<path fill-rule="evenodd" clip-rule="evenodd" d="M186.32 46.5304C186.32 45.1259 187.49 43.985 188.927 43.985C190.368 43.985 191.536 45.1259 191.536 46.5304V46.5475V65.169L191.489 65.9775C190.678 68.5077 187.93 68.2744 187.93 68.2744C186.233 68.3363 185.405 67.1648 185.405 67.1648L178.312 54.7463C178.24 54.6295 178.027 54.7753 178.019 54.8961V65.9786C178.019 67.4181 176.831 68.5893 175.353 68.5893C173.878 68.5893 172.676 67.4181 172.676 65.9786V47.7202C172.676 47.1691 172.965 46.7445 172.965 46.7445C173.198 46.3227 173.595 45.3855 175.085 44.7769C176.514 44.1961 178.588 44.893 179.326 46.0791C181.762 49.979 183.792 53.9819 186.102 57.7898C186.338 57.8299 186.32 57.4501 186.32 57.4501V46.5304Z" fill="#E2001A"/>
<path fill-rule="evenodd" clip-rule="evenodd" d="M194.979 46.177H195.524C195.668 46.177 196.108 46.177 196.108 45.7906C196.108 45.4489 195.716 45.4489 195.576 45.4489H194.979V46.177ZM195.617 45.2018C195.75 45.2018 196.376 45.2018 196.376 45.7762C196.376 46.009 196.269 46.2222 195.978 46.2894V46.2988C196.271 46.3809 196.328 46.5545 196.34 46.8254C196.356 47.1817 196.356 47.2256 196.405 47.3128H196.136C196.096 47.2499 196.081 47.1867 196.073 46.9213C196.073 46.5886 196.013 46.419 195.517 46.419H194.977V47.3128H194.708V45.2018H195.617ZM193.899 46.2419C193.899 47.1152 194.611 47.8401 195.515 47.8401C196.402 47.8401 197.127 47.1301 197.127 46.2419C197.127 45.3772 196.428 44.6426 195.515 44.6426C194.595 44.6426 193.899 45.3772 193.899 46.2419ZM197.402 46.2408C197.402 47.2641 196.549 48.0852 195.519 48.0852C194.463 48.0852 193.63 47.25 193.63 46.2408C193.63 45.2366 194.459 44.3945 195.519 44.3945C196.566 44.3945 197.402 45.2313 197.402 46.2408Z" fill="#E2001A"/>
<path fill-rule="evenodd" clip-rule="evenodd" d="M42.458 45.1153C43.737 45.5999 44.3402 46.5914 45.1832 47.4516C46.6256 48.9399 47.8691 50.4476 49.4431 51.821C49.543 51.9071 49.8276 51.9071 49.904 51.821C51.8951 49.4983 53.5009 47.1494 55.9423 45.2711C57.2803 44.2465 59.4553 44.9945 59.8678 46.7294C60.0698 47.5713 59.7762 48.352 59.313 48.9541C56.9837 51.9616 54.7224 54.4468 52.3878 57.276C52.3212 60.4015 52.3878 63.0343 52.3878 66.3084C52.3878 67.6002 50.8235 68.6097 49.77 68.5896C49.0118 68.5885 48.0869 68.2631 47.6253 67.4275C47.4014 67.0386 47.2378 66.576 47.2227 66.2001C47.1016 63.2403 46.9647 60.2847 46.9715 57.3209C43.619 53.1311 39.1827 49.4493 38.9981 47.9061C38.7907 46.1425 40.1299 44.236 42.458 45.1153Z" fill="#E2001A"/>
<path fill-rule="evenodd" clip-rule="evenodd" d="M82.6577 63.2516V47.2273C82.6417 43.1375 76.9256 43.8051 77.1201 47.1344V67.0739C77.1201 67.0739 77.1201 68.7332 79.1547 68.5786H88.1885C88.1885 68.5786 90.7904 68.6344 90.9459 66.1099C90.9459 66.1099 90.9238 63.9107 88.7976 63.449L82.9352 63.4277C82.9352 63.4277 82.5586 63.3382 82.6478 62.947" fill="#E2001A"/>
<path fill-rule="evenodd" clip-rule="evenodd" d="M66.7249 58.6104C66.7483 58.6115 67.8845 58.6504 67.8897 58.6104C67.9268 57.3504 67.8897 55.8502 67.8663 54.633C66.9149 55.8731 66.1364 56.9721 65.2209 58.1886C65.1347 58.3024 65.0788 58.5706 65.3448 58.589C65.8328 58.6181 66.4673 58.5706 66.7249 58.6104ZM73.3442 65.9513C73.1176 68.1594 71.4919 68.6347 70.505 68.5673C69.7937 68.4371 68.4445 68.1868 68.1348 66.6163C67.9368 65.6101 67.8922 64.0762 67.8658 63.8494C67.859 63.7907 61.2316 63.8296 61.2211 63.8296C60.063 65.3245 58.9261 67.1334 57.8602 68.1524C57.4757 68.5176 56.9045 68.6141 56.4822 68.5834C55.4435 68.5209 54.3111 67.9858 53.9213 66.9329C53.6833 66.2986 53.4522 65.5576 53.9039 64.9073C57.0224 60.466 59.8311 56.7499 63.0507 52.4324C64.8275 50.0461 66.4109 47.9322 68.2284 45.6336C69.1659 44.4536 69.984 44.4107 70.8332 44.3946C70.7788 44.3946 73.138 44.3455 73.3381 46.4957V65.9416" fill="#E2001A"/>
<path fill-rule="evenodd" clip-rule="evenodd" d="M29.1738 50.4132C25.508 50.4132 22.5333 53.3192 22.5333 56.9087C22.5333 60.4945 25.508 63.4002 29.1738 63.4002C32.8412 63.4002 35.8097 60.4945 35.8097 56.9087C35.8097 53.3192 32.8412 50.4132 29.1738 50.4132ZM41.4937 56.9092C41.4937 63.5871 35.9612 69 29.1272 69C22.3009 69 16.7661 63.5871 16.7661 56.9092C16.7661 50.2251 22.3009 44.8058 29.1272 44.8058C35.9612 44.8058 41.4937 50.2251 41.4937 56.9092Z" fill="#E2001A"/>
<path fill-rule="evenodd" clip-rule="evenodd" d="M98.1721 55.1842C98.7172 50.9426 101.628 47.3526 105.5 45.7465C110.171 43.8004 115.754 44.8909 119.008 48.8609C119.712 49.7183 119.499 50.8556 118.848 51.7186C118.164 52.6111 117.074 53.0711 116.096 52.7045C114.443 52.0735 113.308 50.6295 111.47 50.2522C107.685 49.487 104.13 51.945 103.584 55.5447C103.045 59.1191 105.129 62.5488 108.851 63.2373C111.457 63.719 113.503 62.3433 115.651 60.8672C116.667 60.1674 118.368 60.519 119.004 61.7669C119.384 62.5159 119.667 63.3214 119.201 64.128C117.45 67.1547 113.886 68.243 110.597 68.5501C108.071 68.7889 105.764 67.93 103.605 66.6451C99.6414 64.2858 97.5757 59.7897 98.1721 55.1842Z" fill="#E2001A"/>
<path fill-rule="evenodd" clip-rule="evenodd" d="M129.124 58.5873C129.389 58.5769 129.333 58.3067 129.244 58.1899C128.328 56.9727 127.547 55.8741 126.599 54.6355C126.573 55.852 126.536 57.3518 126.582 58.6102C126.582 58.6513 127.711 58.6102 127.741 58.6079C127.992 58.5705 128.639 58.6173 129.124 58.5873ZM121.122 65.9411V46.4934C121.322 44.3453 123.688 44.3946 123.628 44.3946C124.481 44.4107 125.299 44.4538 126.233 45.6335C128.058 47.9345 129.633 50.049 131.417 52.433C134.638 56.7525 137.442 60.4668 140.563 64.9117C141.015 65.5564 140.781 66.2977 140.546 66.9349C140.156 67.9834 139.023 68.5207 137.981 68.584C137.568 68.6132 136.991 68.5129 136.609 68.154C135.544 67.1351 134.404 65.3244 133.244 63.8303C133.235 63.8303 126.608 63.7873 126.599 63.8461C126.573 64.075 126.528 65.6088 126.331 66.6158C126.019 68.1813 124.67 68.4399 123.962 68.5667C123.857 68.5869 124.106 68.5518 123.965 68.5634C122.973 68.6293 121.35 68.1573 121.122 65.9505" fill="#E2001A"/>
<path fill-rule="evenodd" clip-rule="evenodd" d="M7.90688 55.439C9.45275 55.439 10.7068 54.2905 10.7068 52.8661C10.7068 51.445 9.45275 50.2917 7.90688 50.2917C6.35882 50.2917 5.10537 51.445 5.10537 52.8661C5.10537 54.2905 6.35882 55.439 7.90688 55.439ZM2.10145 46.9116C3.62081 45.6658 4.38691 45.1782 6.80756 44.8582C8.85581 44.5884 10.6501 45.4444 10.9115 45.5334C14.1309 46.6071 16.3075 50.2969 15.8753 53.9492C15.62 56.1202 14.3266 58.0814 12.7173 59.498C14.2706 62.9202 17.1764 65.1511 16.7155 66.8465C16.3967 68.0175 16.0703 68.322 15.0333 68.7709C14.3673 69.0569 13.4079 68.9822 12.8563 68.5123C10.1568 66.2281 8.73422 62.9281 6.46001 60.566C5.89948 59.9868 5.64867 60.2442 5.64867 60.5596C5.65463 63.3285 5.6788 65.3845 5.53153 66.739C5.44619 67.5491 4.68001 68.4833 4.15272 68.7431C2.70027 69.4675 0.733886 68.5919 0.480886 66.9698C0.430285 66.6792 0.0275993 65.425 0.00335656 59.7082C-0.0041957 56.8785 0.00335656 56.2589 0.00335656 51.7649C0.00335656 49.93 0.876699 47.9123 2.10145 46.9116Z" fill="#E2001A"/>
<path fill-rule="evenodd" clip-rule="evenodd" d="M186.625 46.5709C186.625 45.1437 187.818 43.985 189.288 43.985C190.761 43.985 191.955 45.1437 191.955 46.5709V46.5889V65.521L191.902 66.3431C191.078 68.9165 188.264 68.6778 188.264 68.6778C186.532 68.7404 185.687 67.5498 185.687 67.5498L178.437 54.925C178.363 54.806 178.145 54.9535 178.139 55.0762V66.3442C178.139 67.8084 176.921 68.9994 175.412 68.9994C173.908 68.9994 172.676 67.8084 172.676 66.3442V47.7813C172.676 47.2213 172.973 46.7892 172.973 46.7892C173.21 46.3602 173.619 45.4077 175.14 44.789C176.602 44.1986 178.717 44.9069 179.474 46.1114C181.967 50.077 184.035 54.1476 186.4 58.0189C186.643 58.0599 186.625 57.6726 186.625 57.6726V46.5709Z" fill="#E2001A"/>
<path fill-rule="evenodd" clip-rule="evenodd" d="M156.024 46.5709C156.024 45.1437 157.217 43.985 158.693 43.985C160.16 43.985 161.357 45.1437 161.357 46.5709V46.5889V65.521L161.305 66.3431C160.475 68.9165 157.668 68.6778 157.668 68.6778C155.93 68.7404 155.091 67.5498 155.091 67.5498L147.832 54.925C147.761 54.806 147.537 54.9535 147.534 55.0762V66.3442C147.534 67.8084 146.316 68.9994 144.804 68.9994C143.294 68.9994 142.078 67.8084 142.078 66.3442V47.7813C142.078 47.2213 142.367 46.7892 142.367 46.7892C142.611 46.3602 143.014 45.4077 144.535 44.789C145.998 44.1986 148.119 44.9069 148.874 46.1114C151.364 50.077 153.434 54.1476 155.791 58.0189C156.042 58.0599 156.024 57.6726 156.024 57.6726V46.5709Z" fill="#E2001A"/>
<path fill-rule="evenodd" clip-rule="evenodd" d="M169.74 66.1968C169.74 67.7428 168.422 68.9994 166.803 68.9994C165.186 68.9994 163.873 67.7428 163.873 66.1968V66.1844V46.7806C163.873 45.2349 165.186 43.985 166.806 43.985C168.422 43.985 169.74 45.2349 169.74 46.7806V46.799V66.1968Z" fill="#E2001A"/>
<path fill-rule="evenodd" clip-rule="evenodd" d="M74.2291 35.3738C73.5788 35.3738 72.9338 35.0883 72.5141 34.5491C71.8075 33.6375 72.0003 32.3454 72.9452 31.6632C78.629 27.5684 87.3283 25.1221 96.2142 25.1221H96.2149C105.068 25.1221 113.745 27.567 119.426 31.6632C120.375 32.3454 120.569 33.6357 119.856 34.5472C119.154 35.4589 117.811 35.6447 116.862 34.9615C113.026 32.198 105.587 29.2447 96.2164 29.2447H96.2142C86.7999 29.2447 79.3486 32.198 75.5099 34.9629C75.1276 35.2408 74.6776 35.3738 74.2291 35.3738Z" fill="#E2001A"/>
<path fill-rule="evenodd" clip-rule="evenodd" d="M76.0744 39.063C75.6502 39.063 75.2272 38.8887 74.9343 38.5541C74.4221 37.9592 74.5124 37.0804 75.1403 36.5918C80.0822 32.7466 87.9597 30.4515 96.2171 30.4515C104.433 30.4515 112.288 32.7455 117.231 36.5914C117.86 37.0783 117.953 37.9577 117.437 38.553C116.92 39.1482 115.992 39.2334 115.364 38.7452C110.929 35.2975 103.772 33.2393 96.2171 33.2393C88.7369 33.2393 81.3739 35.3487 77.0101 38.7459C76.7375 38.96 76.4052 39.063 76.0744 39.063Z" fill="#E2001A"/>
<path fill-rule="evenodd" clip-rule="evenodd" d="M64.5307 9.12897C63.6389 9.12897 62.7573 9.36531 61.9847 9.81303C60.831 10.4814 60.0079 11.5533 59.6723 12.8262C59.3422 14.1016 59.5293 15.4238 60.2152 16.5537C61.1055 18.027 62.7534 18.9527 64.5198 18.9687L64.5541 18.9707C65.449 18.9699 66.3322 18.7329 67.1047 18.2836C68.2599 17.6148 69.0784 16.5456 69.412 15.2734C69.7472 14 69.5524 12.6758 68.8688 11.5456C67.9715 10.0543 66.3064 9.12897 64.5307 9.12897Z" fill="#E2001A"/>
<path fill-rule="evenodd" clip-rule="evenodd" d="M96.3998 12.82C93.6249 12.82 91.3662 15.0279 91.3662 17.7397C91.3662 20.4534 93.6249 22.6617 96.3998 22.6617C99.1717 22.6617 101.425 20.4534 101.425 17.7397C101.425 15.0279 99.1717 12.82 96.3998 12.82Z" fill="#E2001A"/>
<mask id="mask0_140_253" style="mask-type:luminance" maskUnits="userSpaceOnUse" x="90" y="0" width="11" height="11">
<path fill-rule="evenodd" clip-rule="evenodd" d="M90.9893 0.52887L100.972 0.52887V10.2926H90.9893V0.52887L90.9893 0.52887Z" fill="white"/>
</mask>
<g mask="url(#mask0_140_253)">
<path fill-rule="evenodd" clip-rule="evenodd" d="M95.9849 0.52887C93.2309 0.52887 90.9893 2.71948 90.9893 5.41005C90.9893 8.10244 93.2309 10.2927 95.9849 10.2927C98.7359 10.2927 100.972 8.10244 100.972 5.41005C100.972 2.71948 98.7359 0.52887 95.9849 0.52887Z" fill="#E2001A"/>
</g>
<path fill-rule="evenodd" clip-rule="evenodd" d="M82.9859 14.4602C82.5383 14.4602 82.0909 14.5179 81.6563 14.6331C78.9812 15.3499 77.4002 18.0625 78.1353 20.6793C78.7246 22.7893 80.7087 24.2783 82.9625 24.2995L83.0763 24.3019C83.4941 24.2943 83.9105 24.2355 84.3158 24.1271C85.6091 23.7814 86.6857 22.9603 87.3531 21.8187C88.0172 20.6759 88.1872 19.3515 87.8332 18.0843C87.2353 15.9492 85.2435 14.4602 82.9859 14.4602Z" fill="#E2001A"/>
<path fill-rule="evenodd" clip-rule="evenodd" d="M70.8185 19.3807C69.9233 19.3807 69.0422 19.6166 68.2734 20.0651C67.1163 20.7323 66.2944 21.8038 65.9599 23.0772C65.6293 24.3521 65.8204 25.6767 66.5011 26.8084C67.3923 28.2795 69.0407 29.2041 70.8107 29.2208L70.8403 29.2224C71.7385 29.2224 72.615 28.9854 73.3932 28.5379C74.548 27.8684 75.369 26.7989 75.6997 25.5251C76.0349 24.2529 75.8415 22.9295 75.1601 21.7973C74.2571 20.3071 72.5962 19.3807 70.8185 19.3807Z" fill="#E2001A"/>
<path fill-rule="evenodd" clip-rule="evenodd" d="M110.714 14.6331C110.279 14.5179 109.834 14.4602 109.387 14.4602C107.128 14.4602 105.134 15.949 104.538 18.0839C103.806 20.6997 105.385 23.4092 108.06 24.126C108.495 24.242 108.945 24.3019 109.391 24.3019C111.645 24.3019 113.644 22.8108 114.24 20.6786C114.969 18.0621 113.389 15.3498 110.714 14.6331Z" fill="#E2001A"/>
<path fill-rule="evenodd" clip-rule="evenodd" d="M114.064 2.74233C113.63 2.62667 113.189 2.56747 112.738 2.56747C110.479 2.56747 108.488 4.05846 107.89 6.19081C107.158 8.80652 108.743 11.5178 111.414 12.2333C111.849 12.3497 112.296 12.4092 112.741 12.4092C114.998 12.4092 116.995 10.9183 117.591 8.78638C118.324 6.16937 116.74 3.45898 114.064 2.74233Z" fill="#E2001A"/>
<path fill-rule="evenodd" clip-rule="evenodd" d="M124.102 20.0651C123.327 19.6166 122.444 19.3807 121.548 19.3807C119.777 19.3807 118.116 20.3072 117.215 21.7974C116.531 22.9295 116.338 24.2529 116.672 25.5251C117.003 26.7989 117.825 27.8685 118.98 28.538C119.76 28.9862 120.64 29.2224 121.539 29.2224C123.309 29.2224 124.969 28.2979 125.871 26.8085C126.554 25.6768 126.744 24.3521 126.411 23.0772C126.076 21.8039 125.254 20.7323 124.102 20.0651Z" fill="#E2001A"/>
<path fill-rule="evenodd" clip-rule="evenodd" d="M132.698 12.8262C132.363 11.5533 131.542 10.4814 130.386 9.81296C129.611 9.36531 128.729 9.12897 127.834 9.12897C126.065 9.12897 124.404 10.0543 123.503 11.5449C122.819 12.677 122.625 14.0011 122.961 15.2734C123.293 16.5456 124.113 17.6148 125.269 18.2836C126.045 18.734 126.928 18.9707 127.825 18.9707C129.598 18.9707 131.258 18.0454 132.158 16.5536C132.841 15.4238 133.033 14.1016 132.698 12.8262Z" fill="#E2001A"/>
<path fill-rule="evenodd" clip-rule="evenodd" d="M80.0572 12.4092C80.5047 12.4092 80.9523 12.3492 81.3826 12.2333C84.0522 11.5178 85.6319 8.80652 84.9021 6.19073C84.308 4.05846 82.3128 2.56747 80.0526 2.56747C79.6057 2.56747 79.1575 2.62667 78.7255 2.74233C76.0494 3.45891 74.4693 6.16937 75.1999 8.78707C75.7925 10.8977 77.7767 12.3855 80.0276 12.4069L80.0572 12.4092Z" fill="#E2001A"/>
</svg>
